<svg xmlns="http://www.w3.org/2000/svg" width="900" height="220" viewBox="0 0 900 220" role="img" aria-label="Oscar Rondon - AI Security and Full Stack">
  <defs>
    <linearGradient id="bg" x1="0%" y1="0%" x2="100%" y2="100%">
      <stop offset="0%" stop-color="#0d1117"/>
      <stop offset="35%" stop-color="#161b22"/>
      <stop offset="70%" stop-color="#1a1423"/>
      <stop offset="100%" stop-color="#0d1117"/>
    </linearGradient>
    <linearGradient id="accent" x1="0%" y1="0%" x2="100%" y2="0%">
      <stop offset="0%" stop-color="#ff6b6b"/>
      <stop offset="25%" stop-color="#c084fc"/>
      <stop offset="55%" stop-color="#38bdf8"/>
      <stop offset="80%" stop-color="#34d399"/>
      <stop offset="100%" stop-color="#fbbf24"/>
    </linearGradient>
    <linearGradient id="textGrad" x1="0%" y1="0%" x2="100%" y2="0%">
      <stop offset="0%" stop-color="#f0f6fc"/>
      <stop offset="50%" stop-color="#e2e8f0"/>
      <stop offset="100%" stop-color="#cbd5e1"/>
    </linearGradient>
    <filter id="glow" x="-20%" y="-20%" width="140%" height="140%">
      <feGaussianBlur stdDeviation="2.5" result="blur"/>
      <feMerge>
        <feMergeNode in="blur"/>
        <feMergeNode in="SourceGraphic"/>
      </feMerge>
    </filter>
  </defs>

  <rect width="900" height="220" rx="16" fill="url(#bg)"/>
  <rect x="1" y="1" width="898" height="218" rx="15" fill="none" stroke="url(#accent)" stroke-width="1.5" opacity="0.55"/>

  <path d="M0 170 Q 112 150, 225 170 T 450 170 T 675 170 T 900 170 L 900 220 L 0 220 Z" fill="url(#accent)" opacity="0.08"/>
  <path d="M0 185 Q 150 165, 300 185 T 600 185 T 900 185" fill="none" stroke="url(#accent)" stroke-width="1.2" opacity="0.35"/>

  <g transform="translate(780, 38)" opacity="0.18">
    <path d="M30 0 C45 15, 45 45, 30 60 C15 45, 15 15, 30 0 Z" fill="url(#accent)"/>
  </g>

  <text x="48" y="82" font-family="Segoe UI, Helvetica, Arial, sans-serif" font-size="42" font-weight="700" fill="url(#textGrad)" filter="url(#glow)">
    Oscar Rond&#243;n
  </text>
  <text x="50" y="118" font-family="Segoe UI, Helvetica, Arial, sans-serif" font-size="16" fill="#94a3b8" letter-spacing="1.5">
    AI SECURITY &#183; ADVERSARIAL ENGINEERING &#183; FULL STACK
  </text>
  <text x="50" y="148" font-family="Segoe UI, Helvetica, Arial, sans-serif" font-size="14" fill="#64748b">
    IaaS365 Production &#183; iSecurity365 Cloud Dev &#183; Remote
  </text>

  <circle cx="50" cy="188" r="4" fill="#ff6b6b" opacity="0.8"/>
  <circle cx="66" cy="188" r="4" fill="#c084fc" opacity="0.8"/>
  <circle cx="82" cy="188" r="4" fill="#38bdf8" opacity="0.8"/>
  <circle cx="98" cy="188" r="4" fill="#34d399" opacity="0.8"/>
</svg>
